<svg xmlns="http://www.w3.org/2000/svg" width="1400" height="1900" viewBox="0 0 1400 1900">
  <defs>
    <radialGradient id="a" cx="54%" cy="26%" r="68%">
      <stop offset="0" stop-color="#e8d4aa" stop-opacity=".82"/>
      <stop offset=".28" stop-color="#8e6539" stop-opacity=".45"/>
      <stop offset=".62" stop-color="#140d09"/>
      <stop offset="1" stop-color="#030303"/>
    </radialGradient>
    <linearGradient id="b" x1="0" y1="0" x2="1" y2="1">
      <stop stop-color="#f7f1e6" stop-opacity=".3"/>
      <stop offset=".42" stop-color="#c5a36a" stop-opacity=".09"/>
      <stop offset="1" stop-color="#000" stop-opacity="0"/>
    </linearGradient>
    <filter id="soft"><feGaussianBlur stdDeviation="34"/></filter>
  </defs>
  <rect width="1400" height="1900" fill="#050504"/>
  <rect width="1400" height="1900" fill="url(#a)"/>
  <path d="M170 0h1v1900h-1zM350 0h1v1900h-1zM700 0h1v1900h-1zM1050 0h1v1900h-1zM1230 0h1v1900h-1z" fill="#f7f1e6" opacity=".055"/>
  <circle cx="760" cy="535" r="390" fill="none" stroke="#f7f1e6" stroke-opacity=".16" stroke-width="2"/>
  <circle cx="760" cy="535" r="250" fill="none" stroke="#c5a36a" stroke-opacity=".38" stroke-width="1"/>
  <path d="M0 1170C215 1016 392 1117 610 958c240-175 310-542 790-594v1536H0Z" fill="#030303" opacity=".76"/>
  <path d="M242 1305c240-340 660-220 916-620" fill="none" stroke="#f7f1e6" stroke-opacity=".2" stroke-width="2"/>
  <ellipse cx="855" cy="850" rx="170" ry="590" fill="url(#b)" transform="rotate(35 855 850)" filter="url(#soft)"/>
  <rect x="110" y="117" width="1180" height="1666" fill="none" stroke="#f7f1e6" stroke-opacity=".09"/>
  <rect x="160" y="167" width="1080" height="1566" fill="none" stroke="#c5a36a" stroke-opacity=".12"/>
  <g fill="#f7f1e6" fill-opacity=".48">
    <text x="135" y="1510" font-family="serif" font-size="104" letter-spacing="-6">SIAMAK</text>
    <text x="135" y="1600" font-family="serif" font-size="104" letter-spacing="-6">DEHBOKRI</text>
  </g>
  <text x="140" y="1675" fill="#c5a36a" fill-opacity=".8" font-family="sans-serif" font-size="28" letter-spacing="8">BRAND DIRECTOR / ADVERTISING FILM DIRECTOR</text>
</svg>
