<svg xmlns="http://www.w3.org/2000/svg" width="1800" height="1040" viewBox="0 0 1800 1040">
  <rect width="1800" height="1040" fill="#060606"/>
  <path d="M0 0h1800v1040H0z" fill="#210d09" opacity=".36"/>
  <g fill="none" stroke="#c5a36a" stroke-opacity=".33">
    <circle cx="900" cy="520" r="96"/>
    <circle cx="900" cy="520" r="192"/>
    <circle cx="900" cy="520" r="288"/>
    <circle cx="900" cy="520" r="384"/>
  </g>
  <g stroke="#f7f1e6" stroke-opacity=".07">
    <path d="M0 280h1800M0 400h1800M0 520h1800M0 640h1800M0 760h1800"/>
    <path d="M260 0v1040M520 0v1040M900 0v1040M1280 0v1040M1540 0v1040"/>
  </g>
  <path d="M250 518c150-128 292-128 426 0s278 128 428 0 286-128 446 0" fill="none" stroke="#f7f1e6" stroke-opacity=".62" stroke-width="3"/>
  <path d="M250 570c150-80 292-80 426 0s278 80 428 0 286-80 446 0" fill="none" stroke="#c5a36a" stroke-opacity=".34" stroke-width="2"/>
  <text x="130" y="190" fill="#f7f1e6" fill-opacity=".6" font-family="serif" font-size="108" letter-spacing="-7">AD FILM DIRECTION</text>
  <text x="137" y="250" fill="#c5a36a" fill-opacity=".82" font-family="sans-serif" font-size="24" letter-spacing="8">RHYTHM / FRAME / BELIEF</text>
</svg>
